<?xml version="1.0" encoding="UTF-8"?>
<svg version="1.1" xmlns="http://www.w3.org/2000/svg" width="1024" height="1024">
<path d="M0 0 C337.92 0 675.84 0 1024 0 C1024 337.92 1024 675.84 1024 1024 C686.08 1024 348.16 1024 0 1024 C0 686.08 0 348.16 0 0 Z " fill="#F8F3EA" transform="translate(0,0)"/>
<path d="M0 0 C0.93457031 0.32355469 1.86914062 0.64710938 2.83203125 0.98046875 C5.27269929 1.89899973 7.63037043 2.91256725 10 4 C11.19109375 4.51820313 11.19109375 4.51820313 12.40625 5.046875 C35.47494514 15.70519617 52.4288347 36.75943662 61.33642578 60.13818359 C69.25694078 82.36108549 67.32952454 106.54907326 58 128 C53.75530183 136.78742368 48.67997203 144.72462969 42.60424805 152.34350586 C33.9231963 163.29569372 26.73749849 176.32716499 26.95336914 190.62207031 C26.97186668 192.28100311 26.97186668 192.28100311 26.99073792 193.97344971 C27.00539597 195.16299255 27.02005402 196.3525354 27.03515625 197.578125 C27.04119211 200.1275991 27.04435198 202.67708132 27.04492188 205.2265625 C27.04663082 209.22353591 27.06193976 213.21543141 27.12670898 217.21191406 C27.36586171 233.14881329 27.1658001 245.44034304 17.22537231 258.37475586 C15.51850108 260.63862492 14.12401732 263.0506255 12.71484375 265.5078125 C11.78983766 267.04734101 10.86407209 268.58641348 9.9375 270.125 C8.91145385 271.83202855 7.88541221 273.53905982 6.859375 275.24609375 C6.37017578 276.05933105 5.88097656 276.87256836 5.37695312 277.71044922 C3.82261256 280.2949538 2.27045678 282.88075943 0.71948242 285.46728516 C0.03281514 286.61189307 -0.65451975 287.75610074 -1.3425293 288.89990234 C-3.83798461 293.05099091 -6.31414731 297.2132137 -8.78515625 301.37890625 C-9.80766053 303.09678687 -10.83016839 304.81466549 -11.85336304 306.53213501 C-12.85890402 308.22293489 -13.85978907 309.91650092 -14.8605957 311.61010742 C-15.481521 312.65142822 -16.10244629 313.69274902 -16.7421875 314.765625 C-17.2976123 315.70180664 -17.85303711 316.63798828 -18.42529297 317.60253906 C-20.82340756 321.25362205 -22.04769051 322.73047844 -26.3125 323.9375 C-30.96716798 324.01639268 -32.37410435 322.84958209 -36 320 C-37.64583032 317.92768495 -39.04444489 315.97627297 -40.4375 313.75 C-40.85233643 313.10796631 -41.26717285 312.46593262 -41.69458008 311.80444336 C-43.14537516 309.54587575 -44.57396574 307.27427878 -46 305 C-46.55365234 304.12166504 -47.10730469 303.24333008 -47.67773438 302.33837891 C-51.47959106 296.30204264 -55.25337783 290.24853432 -59.01806641 284.18896484 C-62.29684481 278.91335466 -65.58544852 273.64389693 -68.875 268.375 C-69.45660889 267.44115479 -70.03821777 266.50730957 -70.63745117 265.54516602 C-71.20826416 264.63049561 -71.77907715 263.7158252 -72.3671875 262.7734375 C-73.22304443 261.35345459 -73.22304443 261.35345459 -74.09619141 259.90478516 C-75.95963762 256.92284011 -75.95963762 256.92284011 -78.41552734 254.20068359 C-87.92952982 242.31803422 -86.11981887 228.4291217 -85.875 213.875 C-85.84115522 209.95529122 -85.82037844 206.03609263 -85.81497192 202.11624146 C-85.80832135 199.69186118 -85.78402878 197.2674371 -85.73849487 194.84347534 C-85.59208501 177.20307828 -92.34559251 163.74986204 -102.9375 150.125 C-119.83335197 128.33041359 -126.38658714 104.20599078 -123.78173828 76.69482422 C-121.19945139 57.71115801 -112.69163685 40.21933388 -100 26 C-99.26265625 25.16855469 -98.5253125 24.33710938 -97.765625 23.48046875 C-73.83605731 -1.97402237 -32.84728799 -11.53023016 0 0 Z " fill="#021B27" transform="translate(543,278)"/>
<path d="M0 0 C6.4097729 5.27025772 8.60491668 9.20186574 9.8125 17.3125 C10.34875 16.93738281 10.885 16.56226563 11.4375 16.17578125 C26.50912857 6.33460272 41.34578269 5.57740298 58.77612305 5.66552734 C61.04980669 5.65873808 63.32348482 5.64982766 65.59715271 5.63897705 C71.72979019 5.61632657 77.86200355 5.62496283 83.99464774 5.64087248 C90.44434407 5.65361336 96.89400632 5.64176805 103.34370422 5.63394165 C114.86857224 5.62428563 126.39322541 5.63974223 137.91805974 5.66523834 C148.32266523 5.68754588 158.72699142 5.6837134 169.1315918 5.66064453 C181.26567413 5.63375298 193.3995377 5.62399953 205.53365546 5.63870585 C211.93762737 5.6464509 218.34140789 5.64768013 224.74536705 5.63102341 C230.7744348 5.61643537 236.80298264 5.62685913 242.83199501 5.65549469 C245.02754484 5.66203112 247.22313944 5.66033794 249.41867065 5.64918137 C267.19536387 5.56727288 286.81652151 6.59210447 301.8125 17.3125 C302.4725 17.9725 303.1325 18.6325 303.8125 19.3125 C303.91046875 18.66023438 304.0084375 18.00796875 304.109375 17.3359375 C305.34004079 10.14290816 306.86600366 5.45015421 313 1 C318.4558108 -1.77453626 324.11892424 -2.49447175 330 -0.6875 C334.37408344 1.20210405 337.22521488 4.37338078 339.8125 8.3125 C341.61461131 13.71883392 341.54534031 19.26826124 339.625 24.625 C335.0970774 31.33881627 330.27336573 33.71930589 322.8125 36.3125 C323.25980469 36.93253906 323.70710938 37.55257812 324.16796875 38.19140625 C333.07387426 51.23694375 337.14255042 66.42817149 337.07319641 82.16598511 C337.07702196 83.10527961 337.08084751 84.04457411 337.08478898 85.01233208 C337.0950344 88.13181495 337.09114301 91.25111084 337.0871582 94.37060547 C337.09150935 96.61859303 337.09669384 98.8665791 337.10264587 101.11456299 C337.11600352 107.20137608 337.11661815 113.28812695 337.11408257 119.37495184 C337.1130107 124.46427982 337.11790176 129.55359532 337.122688 134.64292061 C337.13440493 147.33929862 337.13356449 160.03563175 337.12713119 172.73200931 C337.12196345 183.73579669 337.13321692 194.73949551 337.15222941 205.74326538 C337.17164233 217.0663751 337.17956689 228.3894308 337.17610615 239.71256173 C337.17429646 246.05984918 337.17689825 252.40705551 337.19082069 258.75432968 C337.20342756 264.72488281 337.20142778 270.69525911 337.18840981 276.66580963 C337.18605074 278.85063106 337.18875455 281.03546505 337.19703293 283.22027206 C337.2471481 297.48031848 336.68439195 309.92332951 329.8125 322.75 C329.46960938 323.41708984 329.12671875 324.08417969 328.7734375 324.77148438 C326.91089507 328.36505384 324.93763538 331.86579606 322.8125 335.3125 C323.823125 335.374375 324.83375 335.43625 325.875 335.5 C331.08465883 336.26984837 334.77297312 338.9010594 338.140625 342.8828125 C341.17333789 347.47459611 341.71148217 351.92787485 340.8125 357.3125 C339.12897075 362.86117331 336.37072434 366.19959959 331.59375 369.40234375 C326.0089072 372.25600246 319.97083629 371.97097548 314.125 370.1875 C307.33339974 366.34319797 305.14629065 361.43670305 302.8125 354.3125 C302.07386719 354.71082031 301.33523438 355.10914063 300.57421875 355.51953125 C299.55972656 356.04933594 298.54523438 356.57914063 297.5 357.125 C296.51386719 357.64707031 295.52773438 358.16914062 294.51171875 358.70703125 C286.28500944 362.54750944 277.91858627 363.77457054 268.921875 363.74609375 C267.93302307 363.7513356 266.94417114 363.75657745 265.925354 363.76197815 C263.85486788 363.7683491 261.78434533 363.76712604 259.71386719 363.75854492 C256.55598845 363.74998234 253.39989072 363.77895025 250.2421875 363.81054688 C248.21875054 363.81215799 246.1953104 363.81158308 244.171875 363.80859375 C243.23631775 363.81982773 242.3007605 363.83106171 241.33685303 363.84263611 C235.30311909 363.77867317 231.76372701 362.8120988 226.8125 359.3125 C223.37623737 355.54369582 223.30040383 351.65357394 223.4609375 346.75 C223.98672503 343.10453982 225.36784096 341.0214465 227.8125 338.3125 C232.62943537 334.82022186 236.88321535 334.21659822 242.72265625 333.8828125 C244.45612305 333.77259766 244.45612305 333.77259766 246.22460938 333.66015625 C248.63049376 333.51340889 251.03675137 333.37264032 253.44335938 333.23828125 C263.55807391 332.57777416 273.34249338 331.21871538 281.8125 325.3125 C282.89144531 324.57193359 282.89144531 324.57193359 283.9921875 323.81640625 C293.55338091 316.84671476 300.20439506 308.02487854 302.8125 296.3125 C303.71084664 289.12611305 303.48728492 281.84422208 303.44360352 274.61645508 C303.44874961 272.4435925 303.45603607 270.27073411 303.46528625 268.09788513 C303.48371698 262.23024313 303.47091549 256.36305861 303.45119596 250.49543595 C303.43474557 244.33953763 303.44363093 238.18366683 303.44871521 232.02775574 C303.453228 221.69592016 303.43741421 211.36426612 303.40942383 201.0324707 C303.37735034 189.10181125 303.37740031 177.17147864 303.3946386 165.24079591 C303.41052037 153.7403148 303.40376109 142.23995307 303.38670158 130.73947716 C303.37984424 125.85493463 303.38084997 120.97048817 303.38824654 116.08594704 C303.39592669 110.33278122 303.38372638 104.57998601 303.35639763 98.82688332 C303.3495319 96.72024638 303.34939629 94.6135747 303.35661316 92.50693893 C303.66657288 77.88099621 303.66657288 77.88099621 298.8125 64.3125 C298.09126953 62.85070312 298.09126953 62.85070312 297.35546875 61.359375 C294.13213576 55.8973583 290.82030168 52.15220014 285.8125 48.3125 C284.966875 47.466875 284.12125 46.62125 283.25 45.75 C278.46822385 41.71292669 271.66236129 40.20189619 265.8125 38.3125 C264.8225 37.9825 263.8325 37.6525 262.8125 37.3125 C260.01785341 37.20999478 257.24787156 37.16469374 254.45291138 37.16532898 C253.15813002 37.15981395 253.15813002 37.15981395 251.83719146 37.1541875 C248.93328444 37.14313985 246.02941319 37.13930491 243.12548828 37.13549805 C241.04764187 37.12923397 238.96979657 37.12258722 236.89195251 37.11558533 C230.05558047 37.09452744 223.21920816 37.08417804 216.3828125 37.07421875 C214.02830875 37.07017117 211.67380512 37.06605424 209.31930161 37.06186867 C198.25239627 37.04280942 187.18549762 37.02858264 176.11857903 37.0202567 C163.35510627 37.01049561 150.59180746 36.98420856 137.82839596 36.94375581 C127.9581488 36.91354996 118.08795135 36.89878339 108.21765888 36.89547569 C102.32570297 36.89312936 96.43393273 36.88422377 90.54202652 36.85901451 C84.99176998 36.83565221 79.44182024 36.8315334 73.89152718 36.84177589 C71.86192743 36.84226946 69.83231218 36.83600228 67.80275917 36.82221985 C53.63424235 36.73144238 40.52064317 37.29185476 28.8125 46.3125 C27.61173828 47.18261719 27.61173828 47.18261719 26.38671875 48.0703125 C17.89548788 54.84783517 11.41779175 65.42858258 9.8125 76.3125 C9.71563495 79.22747153 9.6689694 82.11841956 9.67205811 85.03321838 C9.66908698 85.91107103 9.66611586 86.78892367 9.6630547 87.69337791 C9.65438341 90.63486903 9.65286077 93.57631938 9.65136719 96.51782227 C9.64673782 98.6271422 9.64171299 100.7364613 9.63632202 102.84577942 C9.62320543 108.57751091 9.61675422 114.3092307 9.61231136 120.04097486 C9.60937877 123.62429731 9.60527355 127.20761658 9.60080719 130.79093742 C9.58713273 142.00893977 9.57746645 153.22693482 9.5736053 164.44494492 C9.56912788 177.38156681 9.55159441 190.31808287 9.5226047 203.25467259 C9.50096091 213.26167439 9.49089954 223.26864647 9.48956418 233.27567142 C9.48851787 239.24857111 9.4826473 245.22137131 9.46474457 251.19424629 C9.44821783 256.81753787 9.44613076 262.44065567 9.45488358 268.06396294 C9.45565155 270.12139223 9.45134305 272.17883104 9.44142532 274.23623657 C9.3611645 291.93221688 10.78787039 306.99185608 23.8125 320.3125 C35.51724576 330.44116118 48.91593122 333.85755514 64.01074219 334.64379883 C71.06528184 335.03750761 78.18765696 335.62203588 83.3125 340.875 C86.28406057 345.70378592 86.42495007 349.69693669 85.8125 355.3125 C83.41981477 360.37394953 80.90922897 362.20989276 75.8125 364.3125 C72.29589844 364.71655273 72.29589844 364.71655273 68.421875 364.74609375 C67.72400879 364.75310303 67.02614258 364.7601123 66.30712891 364.76733398 C64.05842679 364.78131659 61.81115308 364.76887739 59.5625 364.75 C58.79683716 364.74662628 58.03117432 364.74325256 57.24230957 364.73977661 C39.62323077 364.62679825 25.2912632 362.17172781 9.8125 353.3125 C9.59335937 354.04855469 9.37421875 354.78460937 9.1484375 355.54296875 C7.07694494 361.91743975 5.57473735 365.73991284 -0.1875 369.3125 C-5.41360835 371.69833207 -10.8500256 372.43510503 -16.3359375 370.58984375 C-20.69522951 368.58845876 -23.55052313 366.42618392 -26.1875 362.3125 C-28.27332943 356.05501171 -28.3221802 348.70793597 -25.5 342.75 C-20.75529482 337.74882427 -16.64278649 335.50073271 -10.1875 333.3125 C-10.98414063 332.14847656 -10.98414063 332.14847656 -11.796875 330.9609375 C-16.97893646 323.03654424 -20.23121601 315.67748326 -22.1875 306.3125 C-22.35411731 305.57061054 -22.52073462 304.82872108 -22.69240093 304.06435013 C-24.72608612 293.79585863 -24.476252 283.52048302 -24.4621582 273.10058594 C-24.46651168 270.96716637 -24.47169693 268.83374836 -24.47764587 266.70033264 C-24.49097995 260.93360616 -24.4916207 255.16694545 -24.48908257 249.40020657 C-24.48800888 244.57211449 -24.49290648 239.7440355 -24.497688 234.91594625 C-24.50876424 223.51703353 -24.50923144 212.11815377 -24.50317383 200.71923828 C-24.49713752 188.99269878 -24.50944075 177.26627937 -24.5307439 165.53976035 C-24.54840703 155.44252886 -24.55435377 145.34533543 -24.55110615 135.24808908 C-24.54930038 129.23046109 -24.55185849 123.21291875 -24.56582069 117.19530487 C-24.57847099 111.53167987 -24.57638726 105.86824087 -24.56340981 100.20461845 C-24.56105994 98.13757957 -24.56372094 96.0705273 -24.57203293 94.0035038 C-24.65492315 71.77024664 -21.00822746 54.52544031 -9.1875 35.3125 C-9.75597656 35.09335938 -10.32445312 34.87421875 -10.91015625 34.6484375 C-17.4853093 31.94812423 -23.39631042 28.97275696 -26.625 22.375 C-27.75151259 16.24176477 -27.58004699 11.72417555 -24.59375 6.2421875 C-18.43586335 -2.2078014 -9.34854631 -4.9492304 0 0 Z " fill="#049EA6" transform="translate(358.1875,215.6875)"/>
<path d="M0 0 C4.65621984 3.68241037 8.85652637 7.75689546 13 12 C13.67417969 12.66515625 14.34835937 13.3303125 15.04296875 14.015625 C23.65328517 23.07911596 29.94172943 34.94895764 33 47 C33.19078125 47.74121094 33.3815625 48.48242188 33.578125 49.24609375 C36.98195055 71.46551052 31.15474588 92.02414306 18 110 C16.76225567 111.5880122 15.52434571 113.17592863 14.27661133 114.75610352 C1.50222982 130.95555347 -3.99610965 146.46012396 -6 167 C-16.23 167 -26.46 167 -37 167 C-37.06290476 159.75663292 -37.12300851 152.51425441 -37.15525055 145.27085114 C-37.17109508 141.89781514 -37.19226926 138.52500514 -37.22631836 135.15209961 C-37.26261749 131.28232751 -37.2797075 127.41287974 -37.29296875 123.54296875 C-37.30845261 122.33352097 -37.32393646 121.12407318 -37.33988953 119.87797546 C-37.34011612 118.75703995 -37.34034271 117.63610443 -37.34057617 116.48120117 C-37.35056892 114.99894295 -37.35056892 114.99894295 -37.36076355 113.48674011 C-37 111 -37 111 -35.6933136 109.23310852 C-32.4629707 106.88070117 -28.35454443 106.11578169 -24.53710938 105.0703125 C-19.88066029 103.66737838 -17.62090025 102.08758409 -15 98 C-12.63687567 92.91928268 -12.35351952 87.52360526 -13 82 C-13.66 81.01 -14.32 80.02 -15 79 C-22.42503416 78.23189302 -27.62146195 80.3438539 -34.1875 83.5625 C-38.18133262 87.0238216 -39.93158775 91.20421231 -42 96 C-43.94018948 93.52177478 -45.30365599 91.37019497 -46.6875 88.5 C-49.56057617 83.31064537 -54.62423272 81.79192243 -60 80 C-61.85052276 79.85701756 -63.70669851 79.77965329 -65.5625 79.75 C-66.53316406 79.72421875 -67.50382812 79.6984375 -68.50390625 79.671875 C-69.32761719 79.78015625 -70.15132813 79.8884375 -71 80 C-73.73750368 84.10625552 -73.71729641 87.17858494 -73 92 C-71.30382529 96.97932834 -69.22396602 100.88989128 -65.3125 104.4375 C-61.69391414 106.14438012 -58.14684196 107.23250145 -54.26953125 108.19140625 C-51.67389385 109.11618584 -50.67820426 109.82681617 -49 112 C-48.63923645 114.44877625 -48.63923645 114.44877625 -48.65942383 117.3894043 C-48.65965042 118.49031906 -48.65987701 119.59123383 -48.66011047 120.72550964 C-48.67559433 121.91308365 -48.69107819 123.10065765 -48.70703125 124.32421875 C-48.71127609 125.54075638 -48.71552094 126.75729401 -48.71989441 128.01069641 C-48.73671149 131.90318771 -48.77437041 135.79516471 -48.8125 139.6875 C-48.82754287 142.32356024 -48.84123196 144.95962858 -48.85351562 147.59570312 C-48.88407527 154.0641605 -48.94279417 160.53150335 -49 167 C-59.56 167 -70.12 167 -81 167 C-81.2475 164.2775 -81.495 161.555 -81.75 158.75 C-83.65421633 140.97625191 -91.26790269 126.61067155 -102.32519531 112.79760742 C-109.36614686 103.89732719 -114.81336068 93.91843261 -118 83 C-118.33644531 81.91138672 -118.33644531 81.91138672 -118.6796875 80.80078125 C-123.7453697 60.91971344 -118.98396405 40.41865306 -109 23 C-101.47725397 11.08253325 -91.49030354 1.56172629 -79 -5 C-78.17113281 -5.44085938 -77.34226562 -5.88171875 -76.48828125 -6.3359375 C-51.41125108 -18.70577301 -22.73344565 -16.42426916 0 0 Z " fill="#FCA706" transform="translate(557,304)"/>
<path d="M0 0 C4.56882477 5.06275178 5.30161376 8.86691463 5.21484375 15.5 C4.81323706 20.17324144 2.76691123 23.02393116 -0.0625 26.625 C-4.00973493 29.81638143 -8.23953384 31.34539137 -13 33 C-12.55269531 33.62003906 -12.10539062 34.24007812 -11.64453125 34.87890625 C-2.73862574 47.92444375 1.33005042 63.11567149 1.26069641 78.85348511 C1.26452196 79.79277961 1.26834751 80.73207411 1.27228898 81.69983208 C1.2825344 84.81931495 1.27864301 87.93861084 1.2746582 91.05810547 C1.27900935 93.30609303 1.28419384 95.5540791 1.29014587 97.80206299 C1.30350352 103.88887608 1.30411815 109.97562695 1.30158257 116.06245184 C1.3005107 121.15177982 1.30540176 126.24109532 1.310188 131.33042061 C1.32190493 144.02679862 1.32106449 156.72313175 1.31463119 169.41950931 C1.30946345 180.42329669 1.32071692 191.42699551 1.33972941 202.43076538 C1.35914233 213.7538751 1.36706689 225.0769308 1.36360615 236.40006173 C1.36179646 242.74734918 1.36439825 249.09455551 1.37832069 255.44182968 C1.39092756 261.41238281 1.38892778 267.38275911 1.37590981 273.35330963 C1.37355074 275.53813106 1.37625455 277.72296505 1.38453293 279.90777206 C1.4346481 294.16781848 0.87189195 306.61082951 -6 319.4375 C-6.34289062 320.10458984 -6.68578125 320.77167969 -7.0390625 321.45898438 C-8.90160493 325.05255384 -10.87486462 328.55329606 -13 332 C-11.989375 332.061875 -10.97875 332.12375 -9.9375 332.1875 C-4.72784117 332.95734837 -1.03952688 335.5885594 2.328125 339.5703125 C5.36083789 344.16209611 5.89898217 348.61537485 5 354 C3.31647075 359.54867331 0.55822434 362.88709959 -4.21875 366.08984375 C-9.8035928 368.94350246 -15.84166371 368.65847548 -21.6875 366.875 C-28.47910026 363.03069797 -30.66620935 358.12420305 -33 351 C-33.73863281 351.39832031 -34.47726562 351.79664063 -35.23828125 352.20703125 C-36.25277344 352.73683594 -37.26726562 353.26664063 -38.3125 353.8125 C-39.29863281 354.33457031 -40.28476562 354.85664062 -41.30078125 355.39453125 C-49.52749056 359.23500944 -57.89391373 360.46207054 -66.890625 360.43359375 C-67.87947693 360.4388356 -68.86832886 360.44407745 -69.887146 360.44947815 C-71.95763212 360.4558491 -74.02815467 360.45462604 -76.09863281 360.44604492 C-79.25651155 360.43748234 -82.41260928 360.46645025 -85.5703125 360.49804688 C-87.59374946 360.49965799 -89.6171896 360.49908308 -91.640625 360.49609375 C-92.57618225 360.50732773 -93.5117395 360.51856171 -94.47564697 360.53013611 C-100.50938091 360.46617317 -104.04877299 359.4995988 -109 356 C-112.43626263 352.23119582 -112.51209617 348.34107394 -112.3515625 343.4375 C-111.82577497 339.79203982 -110.44465904 337.7089465 -108 335 C-103.18306463 331.50772186 -98.92928465 330.90409822 -93.08984375 330.5703125 C-91.35637695 330.46009766 -91.35637695 330.46009766 -89.58789062 330.34765625 C-87.18200624 330.20090889 -84.77574863 330.06014032 -82.36914062 329.92578125 C-72.25442609 329.26527416 -62.47000662 327.90621538 -54 322 C-52.92105469 321.25943359 -52.92105469 321.25943359 -51.8203125 320.50390625 C-42.25911909 313.53421476 -35.60810494 304.71237854 -33 293 C-32.10165336 285.81361305 -32.32521508 278.53172208 -32.36889648 271.30395508 C-32.36375039 269.1310925 -32.35646393 266.95823411 -32.34721375 264.78538513 C-32.32878302 258.91774313 -32.34158451 253.05055861 -32.36130404 247.18293595 C-32.37775443 241.02703763 -32.36886907 234.87116683 -32.36378479 228.71525574 C-32.359272 218.38342016 -32.37508579 208.05176612 -32.40307617 197.7199707 C-32.43514966 185.78931125 -32.43509969 173.85897864 -32.4178614 161.92829591 C-32.40197963 150.4278148 -32.40873891 138.92745307 -32.42579842 127.42697716 C-32.43265576 122.54243463 -32.43165003 117.65798817 -32.42425346 112.77344704 C-32.41657331 107.02028122 -32.42877362 101.26748601 -32.45610237 95.51438332 C-32.4629681 93.40774638 -32.46310371 91.3010747 -32.45588684 89.19443893 C-32.14592712 74.56849621 -32.14592712 74.56849621 -37 61 C-37.48082031 60.02546875 -37.96164062 59.0509375 -38.45703125 58.046875 C-41.68036424 52.5848583 -44.99219832 48.83970014 -50 45 C-50.845625 44.154375 -51.69125 43.30875 -52.5625 42.4375 C-57.34427615 38.40042669 -64.15013871 36.88939619 -70 35 C-70.99 34.67 -71.98 34.34 -73 34 C-74.87719157 33.89751754 -76.75779161 33.85364784 -78.63774109 33.84178162 C-79.8114325 33.8319928 -80.9851239 33.82220398 -82.19438171 33.81211853 C-83.48334854 33.80636307 -84.77231537 33.8006076 -86.1003418 33.79467773 C-87.47022802 33.7850984 -88.84011129 33.77508828 -90.20999146 33.76467896 C-93.93075064 33.73762982 -97.65152251 33.71662031 -101.37232566 33.69667697 C-105.2601069 33.67481748 -109.14784905 33.64742861 -113.03559875 33.62062073 C-120.39845706 33.57069335 -127.76133707 33.52575468 -135.12423784 33.48259836 C-143.50627769 33.43322638 -151.88827832 33.37830811 -160.27028024 33.32291877 C-177.5134839 33.20909802 -194.75672398 33.10225918 -212 33 C-212 32.67 -212 32.34 -212 32 C-196.49 32 -180.98 32 -165 32 C-164.67 30.02 -164.34 28.04 -164 26 C-164.99 26 -165.98 26 -167 26 C-167 24.68 -167 23.36 -167 22 C-165.68 21.67 -164.36 21.34 -163 21 C-162.01 22.98 -162.01 22.98 -161 25 C-160.01 25 -159.02 25 -158 25 C-158 24.34 -158 23.68 -158 23 C-156.5 21.375 -156.5 21.375 -155 20 C-155.33 19.34 -155.66 18.68 -156 18 C-155.34 18 -154.68 18 -154 18 C-154 17.34 -154 16.68 -154 16 C-154.66 15.67 -155.32 15.34 -156 15 C-154.35 14.67 -152.7 14.34 -151 14 C-151.20625 12.88625 -151.4125 11.7725 -151.625 10.625 C-151.74875 9.42875 -151.8725 8.2325 -152 7 C-151.34 6.34 -150.68 5.68 -150 5 C-217.815 4.505 -217.815 4.505 -287 4 C-287 3.67 -287 3.34 -287 3 C-258.54791552 2.88287545 -230.09586751 2.7948696 -201.64358997 2.74093914 C-188.43084944 2.71522578 -175.21825924 2.68020722 -162.00561523 2.62280273 C-150.48112289 2.57275683 -138.95673949 2.54065916 -127.43214148 2.52955753 C-121.33750037 2.52307453 -115.24317079 2.50798245 -109.14863014 2.47134972 C-103.39563249 2.4370547 -97.6430705 2.42701381 -91.88998032 2.43446159 C-89.79438968 2.43310187 -87.69878231 2.42337152 -85.60328102 2.40397263 C-68.08238352 2.24992478 -48.7591727 3.44889331 -34 14 C-33.01 14.99 -33.01 14.99 -32 16 C-31.90203125 15.34773438 -31.8040625 14.69546875 -31.703125 14.0234375 C-30.66203934 7.93847131 -29.61427442 2.67628416 -24.359375 -1.21484375 C-15.99051238 -6.32712722 -7.64573378 -6.25560037 0 0 Z " fill="#009369" transform="translate(694,219)"/>
<path d="M0 0 C0.99 0.495 0.99 0.495 2 1 C4.25120742 1.08573394 6.50499303 1.10712188 8.7578125 1.09765625 C9.42086395 1.0962413 10.08391541 1.09482635 10.76705933 1.09336853 C12.88641863 1.08776754 15.00567259 1.075215 17.125 1.0625 C18.56119639 1.05748512 19.99739444 1.05292219 21.43359375 1.04882812 C24.95576345 1.03779782 28.47787145 1.02053259 32 1 C32.20113512 19.43747891 32.38436961 37.87504606 32.54658794 56.31290817 C32.62232966 64.87489093 32.70381747 73.43674541 32.79907227 81.99853516 C32.88213001 89.46535095 32.95416223 96.93218001 33.01323253 104.39922547 C33.04485633 108.34902723 33.08181182 112.29860917 33.13199425 116.24822235 C33.17916494 119.97455464 33.2114632 123.70073519 33.2329216 127.42730141 C33.24815691 129.42897085 33.2786534 131.43050647 33.30979919 133.43199158 C33.34939506 144.68934697 31.32322059 154.50148863 26 164.4375 C25.65710938 165.10458984 25.31421875 165.77167969 24.9609375 166.45898438 C23.09839507 170.05255384 21.12513538 173.55329606 19 177 C20.010625 177.061875 21.02125 177.12375 22.0625 177.1875 C27.27215883 177.95734837 30.96047312 180.5885594 34.328125 184.5703125 C37.36083789 189.16209611 37.89898217 193.61537485 37 199 C35.31647075 204.54867331 32.55822434 207.88709959 27.78125 211.08984375 C22.1964072 213.94350246 16.15833629 213.65847548 10.3125 211.875 C3.52089974 208.03069797 1.33379065 203.12420305 -1 196 C-1.73863281 196.39832031 -2.47726562 196.79664063 -3.23828125 197.20703125 C-4.25277344 197.73683594 -5.26726562 198.26664063 -6.3125 198.8125 C-7.29863281 199.33457031 -8.28476562 199.85664062 -9.30078125 200.39453125 C-17.52749056 204.23500944 -25.89391373 205.46207054 -34.890625 205.43359375 C-35.87947693 205.4388356 -36.86832886 205.44407745 -37.887146 205.44947815 C-39.95763212 205.4558491 -42.02815467 205.45462604 -44.09863281 205.44604492 C-47.25651155 205.43748234 -50.41260928 205.46645025 -53.5703125 205.49804688 C-55.59374946 205.49965799 -57.6171896 205.49908308 -59.640625 205.49609375 C-60.57618225 205.50732773 -61.5117395 205.51856171 -62.47564697 205.53013611 C-68.50938091 205.46617317 -72.04877299 204.4995988 -77 201 C-80.43626263 197.23119582 -80.51209617 193.34107394 -80.3515625 188.4375 C-79.82577497 184.79203982 -78.44465904 182.7089465 -76 180 C-71.18306463 176.50772186 -66.92928465 175.90409822 -61.08984375 175.5703125 C-59.93419922 175.49683594 -58.77855469 175.42335938 -57.58789062 175.34765625 C-55.18200624 175.20090889 -52.77574863 175.06014032 -50.36914062 174.92578125 C-40.25442609 174.26527416 -30.47000662 172.90621538 -22 167 C-20.92105469 166.25943359 -20.92105469 166.25943359 -19.8203125 165.50390625 C-9.89259278 158.26703312 -4.4204596 149.79299774 -1 138 C-0.35088699 133.26983269 -0.30749644 128.6257078 -0.34057617 123.85620117 C-0.33209815 122.49468024 -0.32144281 121.13317143 -0.30880737 119.77168274 C-0.28094998 116.11950339 -0.28308045 112.46791708 -0.29110122 108.81566405 C-0.29425095 104.98259912 -0.26912044 101.14971508 -0.24714661 97.31672668 C-0.20986551 90.07810217 -0.19756812 82.83966544 -0.1945222 75.60095435 C-0.18981396 67.35162711 -0.15683437 59.10248596 -0.12162435 50.85324132 C-0.04989846 33.90217447 -0.01320659 16.95121148 0 0 Z " fill="#1AA862" transform="translate(662,374)"/>
<path d="M0 0 C10.56 0 21.12 0 32 0 C32.01458252 3.87524414 32.02916504 7.75048828 32.04418945 11.74316406 C32.09460953 24.5715041 32.16106952 37.39971945 32.23571491 50.22793961 C32.28056693 58.00285735 32.32000562 65.77773037 32.34643555 73.55273438 C32.36950186 80.3341263 32.40299517 87.11537542 32.44870156 93.89665389 C32.47251819 97.48304681 32.49132225 101.06929932 32.49761391 104.65576935 C32.5048559 108.67208261 32.53539014 112.68791103 32.56762695 116.70410156 C32.56619186 117.87655426 32.56475677 119.04900696 32.5632782 120.25698853 C32.72841366 134.88082751 36.60685432 147.37064647 47 158 C58.70474576 168.12866118 72.10343122 171.54505514 87.19824219 172.33129883 C94.25278184 172.72500761 101.37515696 173.30953588 106.5 178.5625 C109.47156057 183.39128592 109.61245007 187.38443669 109 193 C106.60731477 198.06144953 104.09672897 199.89739276 99 202 C95.48339844 202.40405273 95.48339844 202.40405273 91.609375 202.43359375 C90.91150879 202.44060303 90.21364258 202.4476123 89.49462891 202.45483398 C87.24592679 202.46881659 84.99865308 202.45637739 82.75 202.4375 C81.98433716 202.43412628 81.21867432 202.43075256 80.42980957 202.42727661 C62.81073077 202.31429825 48.4787632 199.85922781 33 191 C32.67128906 192.10408203 32.67128906 192.10408203 32.3359375 193.23046875 C30.26444494 199.60493975 28.76223735 203.42741284 23 207 C17.77389165 209.38583207 12.3374744 210.12260503 6.8515625 208.27734375 C2.49227049 206.27595876 -0.36302313 204.11368392 -3 200 C-5.08582943 193.74251171 -5.1346802 186.39543597 -2.3125 180.4375 C2.43220518 175.43632427 6.54471351 173.18823271 13 171 C12.46890625 170.22398437 11.9378125 169.44796875 11.390625 168.6484375 C6.1244048 160.59534895 3.17963276 153.44507528 1 144 C0.82322 143.39774723 0.64643999 142.79549446 0.46430302 142.17499161 C-0.11232834 139.47380659 -0.12273047 136.96720042 -0.12025452 134.20404053 C-0.12162918 133.0205603 -0.12300385 131.83708008 -0.12442017 130.61773682 C-0.12082489 129.32301453 -0.11722961 128.02829224 -0.11352539 126.69433594 C-0.11324326 125.31445315 -0.11340176 123.9345702 -0.1139679 122.5546875 C-0.11425485 118.81122895 -0.10837457 115.06780242 -0.10139394 111.32435131 C-0.09514346 107.41124318 -0.09455526 103.49813432 -0.09336853 99.58502197 C-0.09026022 92.17612774 -0.08205356 84.76724826 -0.07201904 77.35836053 C-0.06084239 68.92312195 -0.05534354 60.48788267 -0.05032361 52.05263853 C-0.03987054 34.70174896 -0.02153126 17.35087961 0 0 Z " fill="#099C66" transform="translate(335,378)"/>
<path d="M0 0 C6.93 0 13.86 0 21 0 C21.66513775 5.98623975 22.18128148 11.76269644 22.31640625 17.75390625 C22.33718735 18.54022934 22.35796844 19.32655243 22.37937927 20.13670349 C22.44398588 22.61189307 22.50333946 25.0871749 22.5625 27.5625 C22.60577011 29.25586835 22.64938687 30.94922787 22.69335938 32.64257812 C22.79957391 36.76162782 22.90108247 40.88076887 23 45 C23.79664063 44.28444946 23.79664063 44.28444946 24.609375 43.55444336 C25.66898438 42.61290405 25.66898438 42.61290405 26.75 41.65234375 C27.44609375 41.03093506 28.1421875 40.40952637 28.859375 39.76928711 C36.98234784 33.0554203 45.95553574 33.18996256 56 34 C65.6904999 35.44326594 72.5500634 40.80917372 78.75 48.1875 C87.60388696 60.19172348 89.17032159 73.56390777 88 88 C85.84563777 99.01802396 79.95999794 110.04491249 71 117 C60.2669922 123.80541472 49.5878161 125.1306258 37.29296875 122.3984375 C31.86082925 120.91620453 27.05811157 119.05811157 23 115 C22.67 116.98 22.34 118.96 22 121 C15.07 121 8.14 121 1 121 C0.31331639 90.51615248 -0.09792362 60.05337735 -0.0625 29.5625 C-0.06164398 28.82036507 -0.06078796 28.07823013 -0.05990601 27.31360626 C-0.04861499 18.20904537 -0.02786094 9.10452616 0 0 Z " fill="#011B24" transform="translate(161,669)"/>
<path d="M0 0 C7.26 0 14.52 0 22 0 C23.125 11.25 23.125 11.25 23.15821838 15.41653442 C23.1680072 16.36425217 23.17779602 17.31196991 23.18788147 18.28840637 C23.19363693 19.29038559 23.1993924 20.29236481 23.20532227 21.32470703 C23.21522186 22.40881363 23.22512146 23.49292023 23.23532104 24.60987854 C23.26666756 28.15916837 23.29158627 31.70847155 23.31640625 35.2578125 C23.33699902 37.73217091 23.35799607 40.20652598 23.37937927 42.68087769 C23.43436017 49.16790045 23.48387445 55.6549537 23.53222656 62.14202881 C23.58261755 68.77179669 23.63821143 75.40152011 23.69335938 82.03125 C23.80064729 95.02079716 23.90167524 108.0103819 24 121 C16.74 121 9.48 121 2 121 C2 118.36 2 115.72 2 113 C1.34 113 0.68 113 0 113 C0 113.66 0 114.32 0 115 C-1.7578125 116.4375 -1.7578125 116.4375 -4.125 118 C-5.27355469 118.7734375 -5.27355469 118.7734375 -6.4453125 119.5625 C-15.51037801 124.66333197 -27.69422393 124.74094252 -37.59375 122.0078125 C-47.99428723 117.26323753 -54.63472314 109.11368262 -59.02734375 98.73828125 C-63.28473776 86.75260575 -64.68887343 71.13588032 -59.875 59.0625 C-58.4765625 56.36328125 -58.4765625 56.36328125 -57 54 C-56.55398438 53.27167969 -56.10796875 52.54335938 -55.6484375 51.79296875 C-49.62346454 42.99112278 -41.64338203 36.02009623 -31 34 C-21.95915022 33.05960049 -11.6827916 32.36827041 -4 38 C-2.68 39.32 -1.36 40.64 0 42 C0 28.14 0 14.28 0 0 Z " fill="#031C26" transform="translate(871,669)"/>
<path d="M0 0 C7.46738149 5.05218879 11.74396624 12.90888009 13.6171875 21.6640625 C13.72550536 22.99744085 13.79193442 24.33469784 13.82250977 25.67211914 C13.8524276 26.84098412 13.8524276 26.84098412 13.88294983 28.03346252 C13.89966232 28.87191208 13.91637482 29.71036163 13.93359375 30.57421875 C13.95437485 31.45573105 13.97515594 32.33724335 13.99656677 33.24546814 C14.03980965 35.11908227 14.08085421 36.99274822 14.11987305 38.86645508 C14.17838674 41.66436502 14.24382217 44.46204084 14.31054688 47.25976562 C14.58078117 59.0641801 14.6569052 70.85655726 14.6171875 82.6640625 C7.6871875 82.6640625 0.7571875 82.6640625 -6.3828125 82.6640625 C-6.3828125 80.0240625 -6.3828125 77.3840625 -6.3828125 74.6640625 C-7.0428125 74.6640625 -7.7028125 74.6640625 -8.3828125 74.6640625 C-8.8778125 76.1490625 -8.8778125 76.1490625 -9.3828125 77.6640625 C-17.74998842 83.83416816 -27.17513102 85.7021318 -37.3828125 84.6640625 C-46.52592493 82.9422368 -53.29448467 79.80116268 -59.3828125 72.6640625 C-63.75863915 66.16662293 -63.21435766 58.24484798 -62.3828125 50.6640625 C-60.42997442 43.99422421 -56.45499719 40.4340217 -50.6640625 36.85546875 C-44.01098266 33.38082945 -37.92672879 32.53333721 -30.453125 32.56640625 C-29.1640625 32.56962891 -27.875 32.57285156 -26.546875 32.57617188 C-25.20052014 32.58452517 -23.85416598 32.59299009 -22.5078125 32.6015625 C-21.13802246 32.6065842 -19.76823065 32.61114593 -18.3984375 32.61523438 C-15.0598506 32.62698996 -11.72135435 32.64342286 -8.3828125 32.6640625 C-8.50298022 31.24532647 -8.63403521 29.82751048 -8.76953125 28.41015625 C-8.87720825 27.22570923 -8.87720825 27.22570923 -8.98706055 26.01733398 C-9.63114992 22.18736642 -11.12628135 19.82320611 -13.3828125 16.6640625 C-18.16441287 13.49743974 -23.88566794 14.18572998 -29.3828125 14.6640625 C-32.92218752 15.90594847 -34.69948384 16.59546211 -36.71606445 19.74902344 C-38.3828125 21.6640625 -38.3828125 21.6640625 -40.74291992 22.11816406 C-41.64888916 22.0972168 -42.5548584 22.07626953 -43.48828125 22.0546875 C-44.96264648 22.03535156 -44.96264648 22.03535156 -46.46679688 22.015625 C-47.49095703 21.98210938 -48.51511719 21.94859375 -49.5703125 21.9140625 C-51.12395508 21.88699219 -51.12395508 21.88699219 -52.70898438 21.859375 C-55.26785534 21.81220687 -57.82487092 21.74640307 -60.3828125 21.6640625 C-59.39181371 13.5517003 -54.6656667 8.12868223 -48.4453125 3.046875 C-34.80064302 -6.10125567 -14.55849644 -8.16230456 0 0 Z " fill="#021B24" transform="translate(584.3828125,707.3359375)"/>
<path d="M0 0 C0.91990723 0.00572021 1.83981445 0.01144043 2.78759766 0.01733398 C12.12695967 0.26172081 19.67189474 2.41332868 26.6875 8.8125 C32.99384283 15.84176506 34.85214603 23.38286043 35.25 32.625 C35.2924585 33.58607666 35.33491699 34.54715332 35.37866211 35.53735352 C36.02992025 52.84352311 35.76209609 70.18541789 35.6875 87.5 C28.7575 87.5 21.8275 87.5 14.6875 87.5 C14.1925 84.035 14.1925 84.035 13.6875 80.5 C12.924375 81.2425 12.16125 81.985 11.375 82.75 C3.62970851 89.11673844 -5.58738446 90.40022107 -15.3125 89.5 C-24.43372051 88.20374336 -30.95104982 84.51816149 -36.8671875 77.59765625 C-41.4902916 70.88790787 -41.07957699 63.30949657 -40.3125 55.5 C-38.37475669 48.83077668 -34.37744611 45.26548606 -28.59375 41.69140625 C-19.42480832 36.90283225 -10.50797556 37.36842361 -0.375 37.4375 C0.88119141 37.44201172 2.13738281 37.44652344 3.43164062 37.45117188 C6.51697663 37.46290319 9.60221316 37.479319 12.6875 37.5 C12.56776426 35.90553481 12.43664753 34.31192175 12.30078125 32.71875 C12.19310425 31.3874707 12.19310425 31.3874707 12.08325195 30.02929688 C11.51757515 26.41399047 10.07401144 24.22744165 7.6875 21.5 C4.39207765 19.37838959 1.62806672 19.20217112 -2.25 19.1875 C-3.26964844 19.17074219 -4.28929687 19.15398438 -5.33984375 19.13671875 C-8.77986429 19.55711548 -10.52627321 20.46655936 -13.3125 22.5 C-13.84359375 23.21671875 -14.3746875 23.9334375 -14.921875 24.671875 C-18.96695262 27.76516965 -23.63764 26.91249538 -28.5625 26.75 C-29.59375 26.73195313 -30.625 26.71390625 -31.6875 26.6953125 C-34.23011064 26.64822712 -36.77083162 26.5824805 -39.3125 26.5 C-36.69084078 16.163889 -31.27299385 10.58707622 -22.3515625 5.0078125 C-14.93963971 1.33043179 -8.26105764 -0.05984078 0 0 Z " fill="#021B25" transform="translate(690.3125,702.5)"/>
<path d="M0 0 C7.26 0 14.52 0 22 0 C22.98917924 22.3271886 23.5095243 44.65733369 24 67 C26.01595255 64.68760063 28.03013272 62.37370394 30.04296875 60.05859375 C30.64102829 59.37196152 31.23908783 58.68532928 31.85527039 57.97789001 C34.96729106 54.39247489 38.00236116 50.77742934 40.92578125 47.03515625 C49.36230154 36.82355308 49.36230154 36.82355308 56.05615234 35.30810547 C63.08240954 34.64364219 70.01442179 35.09005494 77 36 C77.28650443 39.00373847 77.34447131 40.51532324 75.56640625 43.01708984 C74.90511719 43.65855957 74.24382812 44.3000293 73.5625 44.9609375 C72.83160156 45.68023438 72.10070312 46.39953125 71.34765625 47.140625 C70.57292969 47.87796875 69.79820312 48.6153125 69 49.375 C68.25621094 50.10460937 67.51242187 50.83421875 66.74609375 51.5859375 C62.53277142 55.68934707 58.19831377 59.61792924 53.75 63.46386719 C51.57736793 65.37098228 49.52567464 67.3756526 47.5 69.4375 C46.33333333 70.625 45.16666667 71.8125 44 73 C47.89917219 78.27163232 51.90840274 83.42735701 56.0625 88.5 C56.61615234 89.17998047 57.16980469 89.85996094 57.74023438 90.56054688 C60.66761223 94.15458801 63.60727431 97.73809716 66.55859375 101.3125 C67.13536865 102.01439453 67.71214355 102.71628906 68.30639648 103.43945312 C69.39961451 104.76953243 70.49652537 106.09658908 71.59790039 107.41992188 C75.13284112 111.72853708 78.15448944 116.20921785 81 121 C76.77119589 121.14541967 72.54303587 121.23411527 68.3125 121.3125 C67.11431641 121.35439453 65.91613281 121.39628906 64.68164062 121.43945312 C55.80908178 121.56302637 55.80908178 121.56302637 52.05859375 118.953125 C51.37925781 117.97859375 50.69992187 117.0040625 50 116 C49.00226158 114.80492166 47.99642126 113.61658004 46.984375 112.43359375 C45.90269867 111.10444474 44.8247015 109.77229491 43.75 108.4375 C43.18514893 107.73947266 42.62029785 107.04144531 42.03833008 106.32226562 C37.20875676 100.32381642 32.5524514 94.21109648 28 88 C26.02 88.99 26.02 88.99 24 90 C23.67 100.23 23.34 110.46 23 121 C15.74 121 8.48 121 1 121 C0.67 81.07 0.34 41.14 0 0 Z " fill="#001A24" transform="translate(300,669)"/>
<path d="M0 0 C8.78240412 5.26944247 12.84030487 12.55216461 16.0703125 22.2421875 C16.2216899 24.14925474 16.31916404 26.06078363 16.38671875 27.97265625 C16.4496814 29.74455322 16.4496814 29.74455322 16.51391602 31.55224609 C16.55315186 32.83180176 16.5923877 34.11135742 16.6328125 35.4296875 C16.675271 36.74275879 16.71772949 38.05583008 16.76147461 39.40869141 C17.21474869 54.35170488 17.15870449 69.29411954 17.0703125 84.2421875 C9.8103125 84.2421875 2.5503125 84.2421875 -4.9296875 84.2421875 C-4.96932617 82.58243896 -5.00896484 80.92269043 -5.04980469 79.21264648 C-5.20221091 73.04146727 -5.37959836 66.8712132 -5.56445312 60.70092773 C-5.64303834 58.03267625 -5.71063198 55.36478882 -5.7734375 52.69604492 C-5.86500484 48.85522421 -5.98094344 45.01578604 -6.1015625 41.17578125 C-6.12466492 39.98697861 -6.14776733 38.79817596 -6.17156982 37.573349 C-6.45689303 29.52735745 -7.42154683 24.57492114 -13.4296875 18.8671875 C-17.87201661 15.97967358 -21.650953 15.88430719 -26.9296875 16.2421875 C-32.08514705 17.90242024 -35.07877653 19.59625851 -37.9296875 24.2421875 C-40.33536407 30.63350822 -40.18721997 36.74948262 -40.125 43.51953125 C-40.12075516 45.26925987 -40.12075516 45.26925987 -40.11642456 47.05433655 C-40.10527138 50.76289326 -40.08017536 54.47120435 -40.0546875 58.1796875 C-40.04465143 60.70116838 -40.03552668 63.22265305 -40.02734375 65.74414062 C-40.0053479 71.91025022 -39.97085123 78.07617728 -39.9296875 84.2421875 C-47.1896875 84.2421875 -54.4496875 84.2421875 -61.9296875 84.2421875 C-62.1918923 74.63614742 -62.4529385 65.03007773 -62.71199036 55.4239521 C-62.83234589 50.96262803 -62.95319319 46.50131844 -63.07519531 42.04003906 C-63.19309042 37.72826101 -63.3096533 33.41644874 -63.42532349 29.10461044 C-63.46950621 27.46612152 -63.51415508 25.82764509 -63.55929565 24.18918228 C-63.62282615 21.88022271 -63.68464267 19.57122276 -63.74609375 17.26220703 C-63.78162354 15.9520462 -63.81715332 14.64188538 -63.85375977 13.29202271 C-63.94154937 8.6094988 -63.9296875 3.92553429 -63.9296875 -0.7578125 C-56.6696875 -0.7578125 -49.4096875 -0.7578125 -41.9296875 -0.7578125 C-41.5996875 2.2121875 -41.2696875 5.1821875 -40.9296875 8.2421875 C-40.2696875 7.5203125 -39.6096875 6.7984375 -38.9296875 6.0546875 C-28.91124958 -3.99237453 -12.78281432 -6.28307823 0 0 Z " fill="#011B24" transform="translate(492.9296875,705.7578125)"/>
<path d="M0 0 C7.26 0 14.52 0 22 0 C22.85509713 20.27801776 23.19943134 40.57213942 23.32823563 60.86692429 C23.3511263 64.4701585 23.38206433 68.07284235 23.43432617 71.67578125 C23.49321329 75.7917959 23.50983468 79.90702225 23.5234375 84.0234375 C23.54606659 85.25371674 23.56869568 86.48399597 23.5920105 87.7515564 C23.56834673 97.61985524 21.47025085 106.52717112 14.6875 114 C7.43620659 120.47719019 0.06241216 122.06547301 -9.40234375 122.23046875 C-12 122 -12 122 -18 120 C-17.67 113.73 -17.34 107.46 -17 101 C-14.00520833 100.86979167 -11.01041667 100.73958333 -8.015625 100.609375 C-4.42278414 99.88336053 -3.23081509 98.85627727 -1 96 C0.32102685 92.03691946 0.1308172 88.25294975 0.11352539 84.12231445 C0.11367142 83.21479431 0.11381744 82.30727417 0.1139679 81.37225342 C0.11327061 78.36923848 0.10548676 75.36628537 0.09765625 72.36328125 C0.09579142 70.28248631 0.09436782 68.20169092 0.09336853 66.12089539 C0.08954849 60.6414977 0.07972255 55.16212648 0.06866455 49.68273926 C0.05843943 44.09253294 0.05386855 38.50232235 0.04882812 32.91210938 C0.03809985 21.94139275 0.02050717 10.97070271 0 0 Z " fill="#021C25" transform="translate(615,705)"/>
<path d="M0 0 C0.94082932 0.00359528 1.88165863 0.00719055 2.85099792 0.01089478 C4.3288829 0.01067574 4.3288829 0.01067574 5.83662415 0.01045227 C9.11023623 0.01115185 12.3837922 0.01894632 15.65739441 0.02676392 C17.92040984 0.02862794 20.18342567 0.03005191 22.44644165 0.03105164 C28.41577764 0.03487807 34.38508948 0.04470942 40.35441589 0.05575562 C46.44043145 0.06596705 52.52645089 0.07054868 58.61247253 0.07559204 C70.56365505 0.08633157 82.5148196 0.10340949 94.46598816 0.12442017 C94.46598816 0.45442017 94.46598816 0.78442017 94.46598816 1.12442017 C86.54598816 1.61942017 86.54598816 1.61942017 78.46598816 2.12442017 C77.13265483 5.12442017 77.13265483 5.12442017 78.46598816 8.12442017 C77.46598816 10.12442017 77.46598816 10.12442017 74.46598816 12.12442017 C74.46598816 13.44442017 74.46598816 14.76442017 74.46598816 16.12442017 C73.47598816 17.60942017 73.47598816 17.60942017 72.46598816 19.12442017 C71.80598816 19.12442017 71.14598816 19.12442017 70.46598816 19.12442017 C70.46598816 19.78442017 70.46598816 20.44442017 70.46598816 21.12442017 C68.98098816 21.61942017 68.98098816 21.61942017 67.46598816 22.12442017 C67.03286316 21.46442017 66.59973816 20.80442017 66.15348816 20.12442017 C65.59661316 19.46442017 65.03973816 18.80442017 64.46598816 18.12442017 C63.47598816 18.12442017 62.48598816 18.12442017 61.46598816 18.12442017 C61.46598816 19.44442017 61.46598816 20.76442017 61.46598816 22.12442017 C62.45598816 22.12442017 63.44598816 22.12442017 64.46598816 22.12442017 C64.13598816 24.10442017 63.80598816 26.08442017 63.46598816 28.12442017 C34.65099877 28.96254471 5.85364887 29.21676374 -22.97151184 29.18692017 C-24.22054354 29.18563614 -24.22054354 29.18563614 -25.4948082 29.18432617 C-35.8412318 29.17290262 -46.18762036 29.15277842 -56.53401184 29.12442017 C-56.53401184 28.79442017 -56.53401184 28.46442017 -56.53401184 28.12442017 C-48.64251137 27.12416853 -40.85599116 27.00433336 -32.90901184 27.06192017 C-31.11657043 27.06868774 -31.11657043 27.06868774 -29.28791809 27.07559204 C-26.36989537 27.08726413 -23.45198147 27.10363691 -20.53401184 27.12442017 C-20.22463684 26.17567017 -19.91526184 25.22692017 -19.59651184 24.24942017 C-18.53401184 21.12442017 -18.53401184 21.12442017 -17.53401184 19.12442017 C-14.91014697 22.18559585 -14.53401184 22.85615144 -14.53401184 27.12442017 C-12.55401184 27.45442017 -10.57401184 27.78442017 -8.53401184 28.12442017 C-9.02901184 26.14442017 -9.02901184 26.14442017 -9.53401184 24.12442017 C-8.87401184 24.12442017 -8.21401184 24.12442017 -7.53401184 24.12442017 C-8.19401184 22.80442017 -8.85401184 21.48442017 -9.53401184 20.12442017 C-8.87401184 20.12442017 -8.21401184 20.12442017 -7.53401184 20.12442017 C-8.02901184 17.15442017 -8.02901184 17.15442017 -8.53401184 14.12442017 C-7.21401184 13.79442017 -5.89401184 13.46442017 -4.53401184 13.12442017 C-4.53401184 12.46442017 -4.53401184 11.80442017 -4.53401184 11.12442017 C-5.52401184 11.12442017 -6.51401184 11.12442017 -7.53401184 11.12442017 C-7.56089335 9.47867451 -7.58035307 7.83280603 -7.59651184 6.18692017 C-7.6081134 5.27039673 -7.61971497 4.35387329 -7.63166809 3.40957642 C-7.42677785 -1.38485528 -3.99777202 0.00645626 0 0 Z " fill="#009A82" transform="translate(465.5340118408203,222.87557983398438)"/>
<path d="M0 0 C25.41 0 50.82 0 77 0 C75.61062312 2.77875375 74.19991814 5.51255032 72.71484375 8.23828125 C72.05222534 9.4588623 72.05222534 9.4588623 71.3762207 10.70410156 C70.39992678 12.47412096 69.40694317 14.23501716 68.39916992 15.98730469 C66.01940098 20.1454244 63.86442306 24.08080963 62.3984375 28.65234375 C60.78312573 33.15985255 59.24305088 36.50675018 55 39 C44.75534505 42.27221459 33.13076598 42.8774364 23 39 C15.86676718 33.06592916 12.2087742 24.68152804 8.56201172 16.33740234 C6.52614008 11.98754843 3.99221709 8.09145413 1.30493164 4.12036133 C0 2 0 2 0 0 Z " fill="#F9A707" transform="translate(475,518)"/>
<path d="M0 0 C1.04802008 28.67003868 1.10427321 57.31328259 1 86 C-6.26 86 -13.52 86 -21 86 C-21.33 57.95 -21.66 29.9 -22 1 C-6 0 -6 0 0 0 Z " fill="#021B25" transform="translate(282,704)"/>
<path d="M0 0 C5.90616824 3.3495904 11.52278856 8.8524455 13.4375 15.5 C13.7578125 17.4765625 13.7578125 17.4765625 13.9375 19.5625 C14.01742187 20.33335937 14.09734375 21.10421875 14.1796875 21.8984375 C14.6031706 29.79515175 12.42480783 37.55590727 7.75 44 C2.77347464 48.53416755 -2.37336617 50.75088613 -9.125 51.0625 C-15.84047725 50.73974063 -20.7358094 48.25906664 -25.375 43.4375 C-30.38064357 37.02700279 -31.67677074 29.27723683 -31.40625 21.296875 C-30.46901927 13.84163054 -27.49030106 7.99206507 -21.91015625 2.96875 C-15.33068854 -2.0388787 -7.61680951 -3.25581269 0 0 Z " fill="#F6F2EA" transform="translate(213.0625,722.4375)"/>
<path d="M0 0 C7.26 0 14.52 0 22 0 C22.71328548 28.34036068 23.14414945 56.65060891 23 85 C15.74 85 8.48 85 1 85 C0.8677838 77.01814995 0.73708482 69.03627906 0.60884857 61.0543642 C0.54920709 57.34555366 0.48897431 53.63675496 0.42724609 49.92797852 C0.15065795 33.28393632 -0.06179891 16.64708019 0 0 Z " fill="#031C25" transform="translate(390,705)"/>
<path d="M0 0 C7.26 0 14.52 0 22 0 C22.80266802 18.17806988 23.26478509 36.33713085 23.53222656 54.53033447 C23.58368299 57.98445103 23.63870128 61.43851101 23.69335938 64.89257812 C23.79892559 71.59500331 23.90043073 78.29748306 24 85 C16.74 85 9.48 85 2 85 C1.93941406 81.37773438 1.87882813 77.75546875 1.81640625 74.0234375 C1.18690177 37.00433907 1.18690177 37.00433907 0 0 Z " fill="#011A24" transform="translate(775,705)"/>
<path d="M0 0 C5.58023536 3.47606023 8.98659597 7.47495011 10.86572266 13.86254883 C12.47662733 21.62443378 12.91914149 32.1138931 9.1640625 39.21484375 C5.02506255 45.14430997 0.53820346 48.50338672 -6.7109375 49.90234375 C-13.31470266 50.49196564 -17.71704517 48.68442252 -23.3359375 45.33984375 C-29.13165495 39.39160742 -31.20580057 33.16757614 -31.2734375 24.90234375 C-31.12614603 17.47712104 -30.13708104 10.70210387 -25.02734375 5.03515625 C-17.90114432 -1.37076066 -9.27269983 -3.75450815 0 0 Z " fill="#F7F3EB" transform="translate(861.7109375,723.09765625)"/>
<path d="M0 0 C24.75 0 49.5 0 75 0 C75 6.93 75 13.86 75 21 C50.25 21 25.5 21 0 21 C0 14.07 0 7.14 0 0 Z " fill="#D92812" transform="translate(476,484)"/>
<path d="M0 0 C4.81875155 1.98711404 8.65066349 4.97010967 11.5625 9.3125 C13.89140421 15.28664559 14.01616677 20.32241535 11.4375 26.25 C8.87079691 30.82622152 5.05700686 34.0533529 0.01953125 35.61328125 C-6.3775209 36.83824868 -11.31546395 36.21766192 -17 33 C-21.66237949 28.70765062 -23.80729194 24.38957992 -24.3125 18.125 C-24.14249154 13.10030549 -22.89999997 8.95277775 -19.3125 5.265625 C-13.1035717 -0.16718726 -8.2969923 -1.0587573 0 0 Z " fill="#011D27" transform="translate(686,551)"/>
<path d="M0 0 C5.10165465 2.2775244 8.3318292 6.15264589 11 11 C12.63026419 16.32415393 12.66354173 21.09673626 10.3125 26.1875 C7.80953683 30.72796301 4.93711089 33.13906183 0.1875 35.25 C-6.52522208 36.82946402 -11.24952598 36.52887264 -17.23828125 33.2109375 C-20.80437209 30.75974424 -22.64987053 28.05038841 -24 24 C-24.47754426 18.1363828 -24.86215611 12.82010734 -22.3125 7.4375 C-15.24943173 -0.00735574 -10.090671 -0.86139874 0 0 Z " fill="#011F27" transform="translate(355,551)"/>
<path d="M0 0 C4.56882477 5.06275178 5.30161376 8.86691463 5.21484375 15.5 C4.80586439 20.25903251 2.74605508 23.10887866 -0.25 26.6875 C-4.36319596 30.14632387 -8.12908377 31.72786673 -13.4375 32.5 C-19.48948975 31.65059793 -23.92842185 28.47804096 -27.9375 23.9375 C-31.35922973 19.06412736 -31.83512913 13.84590392 -31 8 C-28.57693717 1.81738676 -24.96131973 -1.33869655 -19 -4 C-11.92847845 -6.35717385 -5.59849985 -4.58059078 0 0 Z " fill="#021D26" transform="translate(694,219)"/>
<path d="M0 0 C3.59711227 2.95762565 6.70426806 6.09603612 8.8125 10.3125 C9.3197965 15.86781248 9.57510422 20.73080236 7.125 25.8125 C2.94037393 30.33642008 -1.05372412 34.11939974 -7.4453125 34.41796875 C-14.1586307 34.14081341 -18.42370453 32.01028445 -23.1875 27.3125 C-27.11029086 22.44094112 -27.71159641 18.60165695 -27.1875 12.3125 C-25.18570196 5.72059179 -21.12224626 1.66238607 -15.1875 -1.6875 C-9.82049287 -3.48346347 -4.88108142 -2.58410193 0 0 Z " fill="#011C25" transform="translate(358.1875,215.6875)"/>
<path d="M0 0 C1.53237305 0.00966797 1.53237305 0.00966797 3.09570312 0.01953125 C4.15080078 0.03628906 5.20589844 0.05304687 6.29296875 0.0703125 C7.36740234 0.07933594 8.44183594 0.08835937 9.54882812 0.09765625 C12.19293729 0.12115944 14.83658747 0.15401675 17.48046875 0.1953125 C17.65621961 6.66429613 17.25254623 10.79674289 13.48046875 16.1953125 C9.89614419 19.9761666 6.61722114 22.0333971 1.3359375 22.43359375 C-9.78887644 22.65869648 -9.78887644 22.65869648 -13.26953125 20.4453125 C-16.82722356 16.88762019 -16.82722356 16.88762019 -17.51953125 14.1953125 C-17.51953125 9.51957088 -17.07556436 7.76398272 -13.76953125 4.3828125 C-9.09847935 1.23883526 -5.63613767 -0.06297361 0 0 Z " fill="#F7F3EB" transform="translate(559.51953125,752.8046875)"/>
<path d="M0 0 C1.53720703 0.00966797 1.53720703 0.00966797 3.10546875 0.01953125 C4.16894531 0.03628906 5.23242188 0.05304687 6.328125 0.0703125 C7.94654297 0.08384766 7.94654297 0.08384766 9.59765625 0.09765625 C12.25803778 0.12119945 14.91796836 0.15408451 17.578125 0.1953125 C17.89460825 7.2702998 17.71639461 11.58609418 13.33203125 17.34375 C9.07419147 21.83866326 4.49881408 22.38181072 -1.421875 22.6328125 C-6.91910579 22.50176183 -10.0508035 21.49789985 -14.421875 18.1953125 C-16.16890674 14.70124902 -16.12575149 10.99756118 -15.421875 7.1953125 C-11.66155911 2.07540357 -6.11772434 -0.06797471 0 0 Z " fill="#F6F3EC" transform="translate(686.421875,752.8046875)"/>
<path d="M0 0 C3.41710451 1.68763121 5.46269174 4.07192209 7.375 7.375 C8.53666752 12.25400356 8.63667798 15.67570981 6.4375 20.25 C2.67112218 24.49924677 -0.99787297 25.75412475 -6.5625 26.4375 C-10.78762745 25.89975651 -12.78475802 24.77679989 -16 22 C-18.64682276 17.94153843 -19.77056791 14.81604946 -19 10 C-14.84439146 1.19406763 -9.73248785 -1.50439087 0 0 Z " fill="#041C25" transform="translate(277,667)"/>
<path d="M0 0 C4.12515131 2.06257565 6.30526469 3.74399052 8 8 C8.56557089 12.51722207 8.50876002 16.67157105 6.875 20.9375 C3.54765288 24.59758184 0.37998948 25.85214398 -4.5 26.375 C-9.87888689 25.79869069 -12.83052506 24.35412888 -16.375 20.25 C-18.29553488 16.40893024 -18.53077531 14.24620247 -18 10 C-14.66409034 1.04571618 -9.11910836 -1.45905734 0 0 Z " fill="#051D26" transform="translate(791,667)"/>
<path d="M0 0 C3.72699318 2.06652345 5.30247743 4.19854172 6.4765625 8.27734375 C6.97138385 12.29953444 6.37611665 15.79566253 4.75 19.5 C1.07386281 23.27039712 -1.82427677 24.38313744 -7.0625 24.8125 C-11.45883809 24.73976647 -13.91562988 23.44665267 -17.25 20.5 C-19.90101613 16.43510861 -20.93966174 13.32763217 -20.25 8.5 C-18.77441527 4.78723843 -17.00552035 2.13300353 -13.9375 -0.4375 C-8.9795729 -2.39761072 -4.85175274 -2.00301719 0 0 Z " fill="#041C25" transform="translate(408.25,668.5)"/>
<path d="M0 0 C3.42484369 2.28322912 4.97163392 4.19326784 6.8125 7.875 C7.46503816 13.09530531 6.62991128 16.44763942 3.8125 20.875 C0.57203856 23.81166818 -2.12264935 24.77454239 -6.5 25.1875 C-11.66246807 24.75000271 -14.3023248 22.57165768 -18.0625 19.1875 C-19.87177056 15.46844385 -19.81993854 11.92260663 -19.1875 7.875 C-15.03554103 -0.42891795 -8.85367679 -3.1248271 0 0 Z " fill="#021A23" transform="translate(632.1875,668.125)"/>
<path d="M0 0 C3.8026029 2.0050088 5.61790841 3.42686262 8 7 C8.6772783 12.08746258 8.82467221 16.55682364 6.25 21.0625 C2.22850837 24.52545112 -0.50207226 25.47549692 -5.97265625 25.3125 C-9.42656706 24.78010527 -11.41844495 23.28137423 -14 21 C-16.83172741 16.980774 -17.48860186 13.86024234 -16.65234375 8.96484375 C-15.51359993 5.53497463 -13.54291433 3.54291433 -11 1 C-7.53081128 -0.73459436 -3.79303468 -0.47173877 0 0 Z " fill="#031B24" transform="translate(757,767)"/>
<path d="M0 0 C23.1 0 46.2 0 70 0 C70 6.93 70 13.86 70 21 C45.25 21 20.5 21 -5 21 C-4.67 16.05 -4.34 11.1 -4 6 C-3.67 6 -3.34 6 -3 6 C-3 10.62 -3 15.24 -3 20 C20.43 20 43.86 20 68 20 C68 14.06 68 8.12 68 2 C65.28317993 2.00785522 65.28317993 2.00785522 62.51147461 2.01586914 C56.5084687 2.03203357 50.50546898 2.04350265 44.50244808 2.05181217 C40.86498225 2.05701735 37.2275401 2.06407177 33.59008789 2.07543945 C30.07580395 2.08635273 26.5615427 2.09229464 23.04724312 2.09487724 C21.06265133 2.09760767 19.07806859 2.1054062 17.0934906 2.11329651 C11.29398035 2.11365534 5.70769773 2.07460889 0 1 C0 0.67 0 0.34 0 0 Z " fill="#F2290E" transform="translate(481,484)"/>
<path d="M0 0 C0.66 0.33 1.32 0.66 2 1 C1.67 1.33 1.34 1.66 1 2 C0.87700834 3.68709347 0.82214742 5.37920903 0.79467773 7.07055664 C0.77473251 8.15160172 0.75478729 9.23264679 0.73423767 10.34645081 C0.71752518 11.5224736 0.70081268 12.6984964 0.68359375 13.91015625 C0.66281265 15.10732773 0.64203156 16.30449921 0.62062073 17.53794861 C0.55499721 21.37940487 0.49618097 25.22093201 0.4375 29.0625 C0.39432695 31.65951267 0.35071307 34.25651806 0.30664062 36.85351562 C0.19846961 43.23560536 0.0994912 49.61774533 0 56 C9.24 56 18.48 56 28 56 C28 52.37 28 48.74 28 45 C28.33 45 28.66 45 29 45 C29 49.29 29 53.58 29 58 C18.77 58 8.54 58 -2 58 C-2.04191402 50.73956004 -2.08198699 43.47955694 -2.10350037 36.21910095 C-2.11407136 32.83823483 -2.12820263 29.45746861 -2.15087891 26.07666016 C-2.17504885 22.19951682 -2.18646511 18.32251723 -2.1953125 14.4453125 C-2.20563507 13.23070343 -2.21595764 12.01609436 -2.22659302 10.76467896 C-2.22674408 9.64366791 -2.22689514 8.52265686 -2.22705078 7.36767578 C-2.231492 6.37728302 -2.23593323 5.38689026 -2.24050903 4.3664856 C-2 2 -2 2 0 0 Z " fill="#DDAA08" transform="translate(522,413)"/>
<path d="M0 0 C0.33 0 0.66 0 1 0 C1.85734054 11.35130475 2.12747067 22.61910011 2.0625 34 C2.0574649 35.5651027 2.05290562 37.13020701 2.04882812 38.6953125 C2.03800474 42.46358266 2.02085616 46.23177257 2 50 C4.64 50 7.28 50 10 50 C10 50.66 10 51.32 10 52 C8.741875 52.04125 7.48375 52.0825 6.1875 52.125 C5.47980469 52.14820313 4.77210938 52.17140625 4.04296875 52.1953125 C2 52 2 52 -1 50 C-1.28021722 47.22892042 -1.37180045 44.68467464 -1.328125 41.9140625 C-1.32625183 41.10190277 -1.32437866 40.28974304 -1.32244873 39.45297241 C-1.31571367 37.72625654 -1.30177049 35.99955629 -1.28125 34.27294922 C-1.25053223 31.67009792 -1.24031908 29.06785709 -1.234375 26.46484375 C-1.19223921 17.60164486 -0.95709474 8.82085224 0 0 Z " fill="#E2E3E0" transform="translate(486,740)"/>
<path d="M0 0 C7.59 0 15.18 0 23 0 C25.76857471 6.92143677 25.49202452 12.72638049 24 20 C23.67 20 23.34 20 23 20 C22.21460891 13.81504513 22 8.35206334 22 2 C15.07 2 8.14 2 1 2 C1 17.51 1 33.02 1 49 C0.67 49 0.34 49 0 49 C0 32.83 0 16.66 0 0 Z " fill="#E0E2DD" transform="translate(160,667)"/>
<path d="M0 0 C2 1.75 2 1.75 4 4 C4 5.32 4 6.64 4 8 C5.98 8.33 7.96 8.66 10 9 C9.505 7.02 9.505 7.02 9 5 C9.66 5 10.32 5 11 5 C10.34 3.68 9.68 2.36 9 1 C11.475 1.99 11.475 1.99 14 3 C14 4.98 14 6.96 14 9 C11.53838983 10.23080509 9.93503007 10.12043977 7.18310547 10.11352539 C6.18221893 10.11344986 5.1813324 10.11337433 4.15011597 10.11329651 C3.06674957 10.10813522 1.98338318 10.10297394 0.8671875 10.09765625 C-0.23978485 10.0962413 -1.3467572 10.09482635 -2.48727417 10.09336853 C-6.03320993 10.08775772 -9.57908323 10.07520337 -13.125 10.0625 C-15.52473867 10.05748639 -17.92447833 10.05292325 -20.32421875 10.04882812 C-26.21616725 10.03778478 -32.10807916 10.0210361 -38 10 C-38 9.67 -38 9.34 -38 9 C-30.10849953 7.99974837 -22.32197932 7.87991319 -14.375 7.9375 C-12.58255859 7.94426758 -12.58255859 7.94426758 -10.75390625 7.95117188 C-7.83588353 7.96284397 -4.91796963 7.97921674 -2 8 C-0.52952664 4.08936776 -0.52952664 4.08936776 0 0 Z " fill="#00959A" transform="translate(447,242)"/>
<path d="M0 0 C0.33 0 0.66 0 1 0 C1.78997624 12.13537971 2.26078928 24.29021513 2.66043091 36.44403076 C2.72023926 38.19247254 2.78542223 39.94073859 2.85592651 41.68878174 C2.95503948 44.17899131 3.03451696 46.66911491 3.109375 49.16015625 C3.160653 50.30121071 3.160653 50.30121071 3.21296692 51.46531677 C3.26464844 53.58618164 3.26464844 53.58618164 3 57 C2.01 57.66 1.02 58.32 0 59 C0 39.53 0 20.06 0 0 Z " fill="#FCFCFA" transform="translate(323,678)"/>
<path d="M0 0 C0.33 0 0.66 0 1 0 C1.02546706 7.09838083 1.0429159 14.19674977 1.05493164 21.29516602 C1.05994374 23.70727987 1.06675516 26.11939071 1.07543945 28.53149414 C1.08764223 32.00928493 1.09325968 35.48703537 1.09765625 38.96484375 C1.10281754 40.03395493 1.10797882 41.1030661 1.11329651 42.20457458 C1.11374149 48.21594141 0.94979827 54.05654834 0 60 C-0.66 60.66 -1.32 61.32 -2 62 C-2 53.42 -2 44.84 -2 36 C-1.67 36 -1.34 36 -1 36 C-0.67 24.12 -0.34 12.24 0 0 Z " fill="#C4C8C3" transform="translate(300,670)"/>
<path d="M0 0 C3.18807992 2.85810615 4.68275858 5.1876236 6.109375 9.203125 C8.79204587 15.63530613 11.38135212 21.63589368 17 26 C22.57464562 27.62046791 27.8522593 27.77290979 33.625 27.5625 C34.35489136 27.53667847 35.08478271 27.51085693 35.83679199 27.48425293 C43.88602281 27.47635723 43.88602281 27.47635723 50.92724609 24.43334961 C51.28125488 23.96034424 51.63526367 23.48733887 52 23 C51.34 24.65 50.68 26.3 50 28 C45.23125836 28.14849962 40.46386585 28.25728023 35.69335938 28.32958984 C34.0713761 28.35973462 32.44955548 28.40065941 30.828125 28.45263672 C28.49438389 28.52556613 26.16279889 28.55947489 23.828125 28.5859375 C23.10506165 28.61690521 22.38199829 28.64787292 21.63702393 28.67977905 C19.57519531 28.68115234 19.57519531 28.68115234 16 28 C13.63574219 25.02587891 13.63574219 25.02587891 12 22 C11.34 21.67 10.68 21.34 10 21 C9.35159127 19.15715414 8.70429468 17.31390971 8.0625 15.46875 C6.33404353 11.45263057 3.85995162 7.93881007 1.42578125 4.3203125 C0 2 0 2 0 0 Z " fill="#080B2E" transform="translate(481,530)"/>
<path d="M0 0 C4.95557906 3.48103765 8.226196 7.893767 11.8125 12.6875 C12.40998047 13.47189453 13.00746094 14.25628906 13.62304688 15.06445312 C18 20.85203571 18 20.85203571 18 22 C10.08 22 2.16 22 -6 22 C-6 21.67 -6 21.34 -6 21 C0.6 20.34 7.2 19.68 14 19 C12.989375 17.79601562 11.97875 16.59203125 10.9375 15.3515625 C9.62474384 13.7762551 8.31225774 12.20072262 7 10.625 C6.33226562 9.8309375 5.66453125 9.036875 4.9765625 8.21875 C4.34492188 7.45820312 3.71328125 6.69765625 3.0625 5.9140625 C2.47597656 5.2123291 1.88945312 4.5105957 1.28515625 3.78759766 C0 2 0 2 0 0 Z " fill="#060E14" transform="translate(363,768)"/>
<path d="M0 0 C1.02158203 0.00644531 2.04316406 0.01289062 3.09570312 0.01953125 C4.15080078 0.03628906 5.20589844 0.05304687 6.29296875 0.0703125 C7.36740234 0.07933594 8.44183594 0.08835937 9.54882812 0.09765625 C12.19293729 0.12115944 14.83658747 0.15401675 17.48046875 0.1953125 C17.62332589 8.98102679 17.62332589 8.98102679 15.48046875 12.1953125 C13.83896385 8.9123027 14.96158251 5.76986217 15.48046875 2.1953125 C11.72987072 2.30530858 7.98026531 2.43591119 4.23046875 2.5703125 C2.63525391 2.61671875 2.63525391 2.61671875 1.0078125 2.6640625 C-0.52939453 2.72207031 -0.52939453 2.72207031 -2.09765625 2.78125 C-3.0402832 2.8126709 -3.98291016 2.8440918 -4.95410156 2.87646484 C-7.56788554 3.20132227 -9.26306159 3.87207412 -11.51953125 5.1953125 C-10.51953125 2.1953125 -10.51953125 2.1953125 -8.30200195 1.02001953 C-5.37409828 0.15220707 -3.04682114 -0.03404269 0 0 Z " fill="#F9FAF7" transform="translate(559.51953125,752.8046875)"/>
<path d="M0 0 C2 1 2 1 2.61889648 2.75097656 C3.03509883 5.20713029 3.11284638 7.49319308 3.09765625 9.984375 C3.09443359 10.91894531 3.09121094 11.85351562 3.08789062 12.81640625 C3.07951172 13.78449219 3.07113281 14.75257813 3.0625 15.75 C3.05798828 16.73355469 3.05347656 17.71710937 3.04882812 18.73046875 C3.03706483 21.15370791 3.02062684 23.57682273 3 26 C2.01 25.34 1.02 24.68 0 24 C-0.34057617 21.56982422 -0.34057617 21.56982422 -0.29296875 18.5546875 C-0.28330078 17.47832031 -0.27363281 16.40195312 -0.26367188 15.29296875 C-0.23853516 14.16503906 -0.21339844 13.03710938 -0.1875 11.875 C-0.17396484 10.73933594 -0.16042969 9.60367188 -0.14648438 8.43359375 C-0.11104319 5.62192613 -0.06163517 2.81119583 0 0 Z " fill="#E9EAE4" transform="translate(509,734)"/>
<path d="M0 0 C0 2.97 0 5.94 0 9 C7.26 9 14.52 9 22 9 C22 9.33 22 9.66 22 10 C14.41 10 6.82 10 -1 10 C-1 9.34 -1 8.68 -1 8 C-2.65 8 -4.3 8 -6 8 C-6.33 7.01 -6.66 6.02 -7 5 C-1.125 0 -1.125 0 0 0 Z " fill="#FBFAF6" transform="translate(705,782)"/>
<path d="M0 0 C3.97915159 -0.02886984 7.95827653 -0.04675406 11.9375 -0.0625 C13.07380859 -0.07087891 14.21011719 -0.07925781 15.38085938 -0.08789062 C16.46044922 -0.09111328 17.54003906 -0.09433594 18.65234375 -0.09765625 C20.15269165 -0.10551147 20.15269165 -0.10551147 21.68334961 -0.11352539 C24 0 24 0 25 1 C24.71269945 3.33944736 24.38063221 5.6739143 24 8 C23.67 8 23.34 8 23 8 C23 6.02 23 4.04 23 2 C15.74 2 8.48 2 1 2 C0.67 1.34 0.34 0.68 0 0 Z " fill="#EBECE8" transform="translate(299,667)"/>
<path d="M0 0 C0.33 0 0.66 0 1 0 C1 1.65 1 3.3 1 5 C1.66 5 2.32 5 3 5 C3 13.91 3 22.82 3 32 C2.67 32 2.34 32 2 32 C1.67 28.04 1.34 24.08 1 20 C0.67 20 0.34 20 0 20 C0 13.4 0 6.8 0 0 Z " fill="#EFEDE3" transform="translate(598,751)"/>
<path d="M0 0 C7.92 0 15.84 0 24 0 C24 0.33 24 0.66 24 1 C17.07 1 10.14 1 3 1 C3 4.3 3 7.6 3 11 C2.01 10.67 1.02 10.34 0 10 C0 6.7 0 3.4 0 0 Z " fill="#C9CECA" transform="translate(612,704)"/>
<path d="M0 0 C9.76568955 4.42219904 18.02100128 10.90755669 26 18 C25.67 18.99 25.34 19.98 25 21 C24.59652344 20.53851563 24.19304688 20.07703125 23.77734375 19.6015625 C17.14162539 12.47274405 8.73272619 6.36636309 0 2 C0 1.34 0 0.68 0 0 Z " fill="#F0F2F0" transform="translate(556,282)"/>
<path d="M0 0 C7.88484642 6.24217008 14.62841221 13.87668635 19 23 C18.67 23.66 18.34 24.32 18 25 C17.67 24.01 17.34 23.02 17 22 C15.68 22 14.36 22 13 22 C13.33 21.01 13.66 20.02 14 19 C10.905398 13.65782799 6.93251088 8.73182709 2.5 4.4375 C1.675 3.633125 0.85 2.82875 0 2 C0 1.34 0 0.68 0 0 Z " fill="#EDB907" transform="translate(564,311)"/>
<path d="M0 0 C3.48331435 3.01887244 4.79157144 5.56909529 6 10 C7.11375 9.319375 8.2275 8.63875 9.375 7.9375 C11.2734375 6.77734375 11.2734375 6.77734375 13 6 C13.66 6.33 14.32 6.66 15 7 C13.18924982 8.16938067 11.37635257 9.33543733 9.5625 10.5 C8.55316406 11.1496875 7.54382813 11.799375 6.50390625 12.46875 C4 14 4 14 3 14 C2.86722656 13.32453125 2.73445313 12.6490625 2.59765625 11.953125 C2.42105469 11.06109375 2.24445313 10.1690625 2.0625 9.25 C1.88847656 8.36828125 1.71445312 7.4865625 1.53515625 6.578125 C1.07631512 4.36764947 0.56663926 2.18487932 0 0 Z " fill="#F0F6F2" transform="translate(364,220)"/>
<path d="M0 0 C1.98 1.32 3.96 2.64 6 4 C5.01 4.33 4.02 4.66 3 5 C2.34 6.32 1.68 7.64 1 9 C-5.27 8.67 -11.54 8.34 -18 8 C-18 7.67 -18 7.34 -18 7 C-12.06 7 -6.12 7 0 7 C0 4.69 0 2.38 0 0 Z " fill="#DADDD8" transform="translate(183,783)"/>
<path d="M0 0 C2.08229108 3.12343663 2.23770457 3.53852922 1.9765625 7.01171875 C1.925 7.76904297 1.8734375 8.52636719 1.8203125 9.30664062 C1.75585938 10.09232422 1.69140625 10.87800781 1.625 11.6875 C1.56828125 12.48478516 1.5115625 13.28207031 1.453125 14.10351562 C1.31183972 16.06973581 1.15720094 18.03498824 1 20 C0.67 20 0.34 20 0 20 C-0.81862159 16.4201548 -1.13520898 13.10762899 -1.125 9.4375 C-1.12757813 8.50808594 -1.13015625 7.57867188 -1.1328125 6.62109375 C-1.01309964 4.25852524 -0.66993233 2.25969237 0 0 Z " fill="#E9EAE5" transform="translate(183,737)"/>
<path d="M0 0 C1.21811992 4.1469818 0.7243599 7.08100023 -1 11 C-3.19896285 14.75951712 -5.5604229 18.39281782 -8 22 C-8.33 21.34 -8.66 20.68 -9 20 C-7.890625 17.4609375 -7.890625 17.4609375 -6.25 14.375 C-3.80162278 9.64906257 -1.73944313 5.02505793 0 0 Z " fill="#0C112C" transform="translate(589,385)"/>
<path d="M0 0 C0.66 0.33 1.32 0.66 2 1 C0.36672326 5.64855688 0.36672326 5.64855688 -1.5 7.4375 C-3.60996178 9.63537685 -4.06660038 12.13757449 -5 15 C-5.99 15.495 -5.99 15.495 -7 16 C-7.33 16.66 -7.66 17.32 -8 18 C-7.47729735 13.09690194 -5.9987369 9.81611493 -3.4375 5.625 C-2.79683594 4.56539062 -2.15617187 3.50578125 -1.49609375 2.4140625 C-1.00238281 1.61742187 -0.50867188 0.82078125 0 0 Z " fill="#0D949E" transform="translate(349,251)"/>
<path d="M0 0 C4.46334277 1.36379918 6.27482438 3.27559332 9 7 C9.5775 7.45375 10.155 7.9075 10.75 8.375 C12.79579352 11.03453157 12.18248438 13.77610921 12 17 C9.78827931 14.78827931 9.02598753 12.66161618 7.8515625 9.80859375 C6.03265644 5.94550428 3.06734235 2.91397523 0 0 Z " fill="#1BBB69" transform="translate(356,551)"/>
<path d="M0 0 C1.4216868 4.26506039 -0.34613318 7.20037743 -1.9375 11.1875 C-2.22818359 11.93708984 -2.51886719 12.68667969 -2.81835938 13.45898438 C-3.53725036 15.30924477 -4.26754653 17.15506648 -5 19 C-5.66 19 -6.32 19 -7 19 C-5.34464282 12.17792193 -3.37399268 6.16626248 0 0 Z " fill="#15182B" transform="translate(560,433)"/>
<path d="M0 0 C0.33 0 0.66 0 1 0 C1 7.26 1 14.52 1 22 C0.01 21.34 -0.98 20.68 -2 20 C-2 19.34 -2 18.68 -2 18 C-1.34 18 -0.68 18 0 18 C0 12.06 0 6.12 0 0 Z " fill="#D1D6D1" transform="translate(871,690)"/>
<path d="M0 0 C0.66 0.66 1.32 1.32 2 2 C-0.31 4.31 -2.62 6.62 -5 9 C-5.66 8.34 -6.32 7.68 -7 7 C-4.69 4.69 -2.38 2.38 0 0 Z " fill="#E5E6E2" transform="translate(358,727)"/>
<path d="M0 0 C0.66 0.33 1.32 0.66 2 1 C-0.10515339 4.72450216 -1.24267224 6.6795921 -5.25 8.375 C-6.61125 8.684375 -6.61125 8.684375 -8 9 C-6.90101298 5.70303895 -6.05402613 4.95329411 -3.4375 2.8125 C-2.79683594 2.28269531 -2.15617188 1.75289062 -1.49609375 1.20703125 C-0.75552734 0.60955078 -0.75552734 0.60955078 0 0 Z " fill="#109D58" transform="translate(651,532)"/>
<path d="M0 0 C4.03520597 1.58962659 8.01811282 3.28232318 12 5 C12 5.33 12 5.66 12 6 C7.6822542 5.49202991 3.96697886 4.80317221 0 3 C0 2.01 0 1.02 0 0 Z " fill="#E9F2EB" transform="translate(368,569)"/>
<path d="M0 0 C2 3 2 3 3 5 C2.67 5.66 2.34 6.32 2 7 C1.34 6.67 0.68 6.34 0 6 C-0.99 5.67 -1.98 5.34 -3 5 C-4.1875 2.9375 -4.1875 2.9375 -5 1 C-2 0 -2 0 0 0 Z " fill="#15A362" transform="translate(349,541)"/>
<path d="M0 0 C0.33 0 0.66 0 1 0 C1.91657981 5.38490641 2.11138159 10.54230189 2 16 C-0.30925485 13.55420823 -0.99001814 12.40557866 -1.07421875 8.984375 C-0.94660156 7.91703125 -0.81898438 6.8496875 -0.6875 5.75 C-0.56761719 4.67234375 -0.44773437 3.5946875 -0.32421875 2.484375 C-0.21722656 1.66453125 -0.11023438 0.8446875 0 0 Z " fill="#020C2C" transform="translate(435,363)"/>
<path d="M0 0 C3.94139078 1.66751148 6.7892812 4.22710649 10 7 C9.67 7.99 9.34 8.98 9 10 C7.49702124 8.52386015 5.99768715 7.04400843 4.5 5.5625 C3.6646875 4.73878906 2.829375 3.91507812 1.96875 3.06640625 C0 1 0 1 0 0 Z " fill="#E5E8E4" transform="translate(572,293)"/>
<path d="M0 0 C0.99 0.495 0.99 0.495 2 1 C2 1.66 2 2.32 2 3 C2.66 3 3.32 3 4 3 C5.42944945 5.35438733 6.08661261 6.48032433 5.625 9.25 C5.41875 9.8275 5.2125 10.405 5 11 C4.67 10.01 4.34 9.02 4 8 C3.2575 7.319375 3.2575 7.319375 2.5 6.625 C0.56690264 4.53081119 0.37547204 2.77849308 0 0 Z " fill="#EAEBE7" transform="translate(593,715)"/>
<path d="M0 0 C3.99996286 1.33332095 4.83782337 3.4957827 7 7 C6.1646875 6.566875 6.1646875 6.566875 5.3125 6.125 C2.91505355 4.9586747 0.48403061 3.9660119 -2 3 C-1.34 2.01 -0.68 1.02 0 0 Z " fill="#EAEDEB" transform="translate(326,756)"/>
<path d="M0 0 C0.99 0 1.98 0 3 0 C1.125 4.75 1.125 4.75 0 7 C-0.66 7 -1.32 7 -2 7 C-2.125 4.625 -2.125 4.625 -2 2 C-1.34 1.34 -0.68 0.68 0 0 Z " fill="#0D9857" transform="translate(682,542)"/>
<path d="M0 0 C0.33 1.32 0.66 2.64 1 4 C-1.475 5.485 -1.475 5.485 -4 7 C-4 4 -4 4 -2 1.8125 C-1.34 1.214375 -0.68 0.61625 0 0 Z " fill="#EAA90C" transform="translate(531,393)"/>
<path d="M0 0 C0.33 0 0.66 0 1 0 C1 3.3 1 6.6 1 10 C-0.32 8.68 -1.64 7.36 -3 6 C-2.34 6 -1.68 6 -1 6 C-0.67 4.02 -0.34 2.04 0 0 Z " fill="#F2FBF6" transform="translate(662,226)"/>
<path d="M0 0 C-2 3 -2 3 -3.9453125 3.51171875 C-4.66460937 3.56972656 -5.38390625 3.62773438 -6.125 3.6875 C-8.043125 3.8421875 -8.043125 3.8421875 -10 4 C-6.66064924 0.50886057 -4.84725717 -0.1275594 0 0 Z " fill="#061017" transform="translate(470,704)"/>
<path d="M0 0 C0.99 0 1.98 0 3 0 C2.34 2.97 1.68 5.94 1 9 C0.67 9 0.34 9 0 9 C-1.125 2.25 -1.125 2.25 0 0 Z " fill="#F3AF07" transform="translate(552,445)"/>
<path d="M0 0 C2.375 0.6875 2.375 0.6875 5 2 C6.3125 4.625 6.3125 4.625 7 7 C3.42895561 5.12050295 1.45255699 3.82946843 0 0 Z " fill="#F3B20D" transform="translate(496,393)"/>
<path d="M0 0 C-1.12073862 0.83905565 -2.24674547 1.67107831 -3.375 2.5 C-4.00148438 2.9640625 -4.62796875 3.428125 -5.2734375 3.90625 C-7 5 -7 5 -9 5 C-9.33 4.01 -9.66 3.02 -10 2 C-8.71211992 1.46987262 -7.41953322 0.9511671 -6.125 0.4375 C-5.40570313 0.14746094 -4.68640625 -0.14257812 -3.9453125 -0.44140625 C-2 -1 -2 -1 0 0 Z " fill="#05929A" transform="translate(394,257)"/>
<path d="M0 0 C0.33 0.99 0.66 1.98 1 3 C-0.28965176 4.37562854 -1.62689293 5.70766393 -3 7 C-3.66 7 -4.32 7 -5 7 C-3.70700306 4.11562221 -2.34058637 2.12780579 0 0 Z " fill="#E5E7E3" transform="translate(840,725)"/>
<path d="M0 0 C2.79872437 2.52788007 4.45773019 4.20411134 5 8 C4.34 7.67 3.68 7.34 3 7 C3 6.34 3 5.68 3 5 C1.68 5 0.36 5 -1 5 C-0.67 3.35 -0.34 1.7 0 0 Z " fill="#FBB904" transform="translate(578,328)"/>
</svg>
